<?xml version="1.0" encoding="UTF-8"?>
<svg version="1.1" xmlns="http://www.w3.org/2000/svg" width="38" height="36">
<path d="M0 0 C3.5 -0.375 3.5 -0.375 7 0 C9.11494763 3.17242144 9.21553741 3.78780305 9.0625 7.375 C8.98003753 10.74496639 9.15154177 13.71222436 10 17 C10.66 17 11.32 17 12 17 C12.12375 16.21625 12.2475 15.4325 12.375 14.625 C13 12 13 12 15 10 C14.34 9.01 13.68 8.02 13 7 C14.40540541 1.59459459 14.40540541 1.59459459 16 0 C18.33944736 0.28730055 20.6739143 0.61936779 23 1 C23.625 4.375 23.625 4.375 24 8 C23.34 8.66 22.68 9.32 22 10 C22.433125 10.350625 22.86625 10.70125 23.3125 11.0625 C26.68339413 14.93278585 28 18.93064364 28 24 C27.01 23.67 26.02 23.34 25 23 C24.67 22.34 24.34 21.68 24 21 C24 25.29 24 29.58 24 34 C22.35 33.67 20.7 33.34 19 33 C18.67 31.68 18.34 30.36 18 29 C17.67 30.65 17.34 32.3 17 34 C15.68 33.67 14.36 33.34 13 33 C13 30.03 13 27.06 13 24 C11.68 23.67 10.36 23.34 9 23 C9 26.3 9 29.6 9 33 C7.02 33.495 7.02 33.495 5 34 C4.67 32.35 4.34 30.7 4 29 C3.67 30.32 3.34 31.64 3 33 C0.525 33.495 0.525 33.495 -2 34 C-2 29.71 -2 25.42 -2 21 C-2.66 21.99 -3.32 22.98 -4 24 C-4.66 24 -5.32 24 -6 24 C-5.5912359 21.07052395 -5.20616501 18.46387127 -4 15.75 C-2.73535477 12.27222561 -2.56732028 8.98241854 -2.34375 5.3046875 C-2 3 -2 3 0 0 Z " fill="#08B399" transform="translate(8,1)"/>
<path d="M0 0 C3.5 -0.375 3.5 -0.375 7 0 C9.12932581 3.19398872 9.21365943 3.87217358 9.0625 7.5 C8.94816757 10.48258506 9.03516907 12.10550722 10 15 C9.01 15 8.02 15 7 15 C7.33 15.99 7.66 16.98 8 18 C8.22718496 20.56634861 8.41608184 23.11678107 8.5625 25.6875 C8.60568359 26.38939453 8.64886719 27.09128906 8.69335938 27.81445312 C8.7991736 29.54275206 8.90006581 31.2713511 9 33 C7.02 33.495 7.02 33.495 5 34 C4.67 32.35 4.34 30.7 4 29 C3.67 30.32 3.34 31.64 3 33 C0.525 33.495 0.525 33.495 -2 34 C-2 29.71 -2 25.42 -2 21 C-2.66 21.99 -3.32 22.98 -4 24 C-4.66 24 -5.32 24 -6 24 C-5.5912359 21.07052395 -5.20616501 18.46387127 -4 15.75 C-2.73535477 12.27222561 -2.56732028 8.98241854 -2.34375 5.3046875 C-2 3 -2 3 0 0 Z " fill="#5F1DE9" transform="translate(8,1)"/>
<path d="M0 0 C3.5 -0.375 3.5 -0.375 7 0 C9.44897847 3.67346771 9.31537716 5.66356399 9 10 C8.34 10.66 7.68 11.32 7 12 C6.34 11.67 5.68 11.34 5 11 C5 11.66 5 12.32 5 13 C4.01 13 3.02 13 2 13 C2 12.34 2 11.68 2 11 C0.68 11.33 -0.64 11.66 -2 12 C-2.05422947 10.5629191 -2.09289723 9.12524538 -2.125 7.6875 C-2.14820313 6.88699219 -2.17140625 6.08648437 -2.1953125 5.26171875 C-2 3 -2 3 0 0 Z " fill="#5E4134" transform="translate(8,1)"/>
<path d="M0 0 C2.97 0 5.94 0 9 0 C9.33 4.29 9.66 8.58 10 13 C8.35 12.67 6.7 12.34 5 12 C4.67 10.68 4.34 9.36 4 8 C3.67 9.65 3.34 11.3 3 13 C1.68 12.67 0.36 12.34 -1 12 C-0.67 8.04 -0.34 4.08 0 0 Z " fill="#6F6F6F" transform="translate(22,22)"/>
<path d="M0 0 C2.97 0 5.94 0 9 0 C9.33 3.96 9.66 7.92 10 12 C8.68 12.33 7.36 12.66 6 13 C5.67 11.35 5.34 9.7 5 8 C4.67 9.32 4.34 10.64 4 12 C2.35 12.33 0.7 12.66 -1 13 C-0.67 8.71 -0.34 4.42 0 0 Z " fill="#717171" transform="translate(7,22)"/>
<path d="M0 0 C2.33944736 0.28730055 4.6739143 0.61936779 7 1 C8.46385542 7.22138554 8.46385542 7.22138554 6.25 10.9375 C4 13 4 13 1 13 C-1.3125 10.375 -1.3125 10.375 -3 7 C-1.95238095 1.95238095 -1.95238095 1.95238095 0 0 Z " fill="#EAB623" transform="translate(24,1)"/>
<path d="M0 0 C0.99 0.66 1.98 1.32 3 2 C3.1875 4.625 3.1875 4.625 3 7 C2.34 7 1.68 7 1 7 C1 7.99 1 8.98 1 10 C0.01 10 -0.98 10 -2 10 C-4.1519437 6.77208445 -4.20086443 5.71599191 -4 2 C-2.68 1.34 -1.36 0.68 0 0 Z " fill="#DBA92C" transform="translate(12,4)"/>
<path d="M0 0 C0.99 0 1.98 0 3 0 C3 0.66 3 1.32 3 2 C3.66 2 4.32 2 5 2 C5 1.34 5 0.68 5 0 C5.99 0 6.98 0 8 0 C7.67 2.64 7.34 5.28 7 8 C5.68 8.33 4.36 8.66 3 9 C0 3.375 0 3.375 0 0 Z " fill="#EBBC32" transform="translate(15,16)"/>
<path d="M0 0 C3.625 0.375 3.625 0.375 7 1 C7 2.98 7 4.96 7 7 C6.67 6.01 6.34 5.02 6 4 C3.69 4 1.38 4 -1 4 C-1.33 4.99 -1.66 5.98 -2 7 C-2.125 4.625 -2.125 4.625 -2 2 C-1.34 1.34 -0.68 0.68 0 0 Z " fill="#5F4235" transform="translate(24,1)"/>
<path d="M0 0 C0.66 0 1.32 0 2 0 C4.43160605 3.36683915 5 4.73350364 5 9 C2 8 2 8 0 5 C-0.125 2.3125 -0.125 2.3125 0 0 Z " fill="#FDC927" transform="translate(31,16)"/>
<path d="M0 0 C0.66 0 1.32 0 2 0 C2.25532751 3.06393013 2.21861333 4.63233212 0.625 7.3125 C-0.179375 8.1478125 -0.179375 8.1478125 -1 9 C-1.66 9 -2.32 9 -3 9 C-2.5020163 5.26512223 -2.12508244 3.18762365 0 0 Z " fill="#FEC726" transform="translate(5,16)"/>
<path d="M0 0 C0.93423645 3.01031744 1.04449911 3.86650268 0 7 C-1.32 6.67 -2.64 6.34 -4 6 C-2.68 4.02 -1.36 2.04 0 0 Z " fill="#FEC422" transform="translate(21,18)"/>
<path d="M0 0 C2.31 0 4.62 0 7 0 C6.34 1.32 5.68 2.64 5 4 C4.34 3.34 3.68 2.68 3 2 C2.34 2.66 1.68 3.32 1 4 C0.67 2.68 0.34 1.36 0 0 Z " fill="#C89E2E" transform="translate(23,5)"/>
</svg>
