<?xml version="1.0" encoding="UTF-8"?>
<svg version="1.1" xmlns="http://www.w3.org/2000/svg" width="512" height="512">
<path d="M0 0 C110.88 0 221.76 0 336 0 C336 9.9 336 19.8 336 30 C345.9 30 355.8 30 366 30 C366 39.9 366 49.8 366 60 C375.9 60 385.8 60 396 60 C396 209.16 396 358.32 396 512 C285.12 512 174.24 512 60 512 C60 502.1 60 492.2 60 482 C50.1 482 40.2 482 30 482 C30 472.1 30 462.2 30 452 C20.1 452 10.2 452 0 452 C0 302.84 0 153.68 0 0 Z " fill="#FDFDFE" transform="translate(0,0)"/>
<path d="M0 0 C110.88 0 221.76 0 336 0 C336 9.9 336 19.8 336 30 C345.9 30 355.8 30 366 30 C366 39.9 366 49.8 366 60 C375.9 60 385.8 60 396 60 C396 209.16 396 358.32 396 512 C285.12 512 174.24 512 60 512 C60 502.1 60 492.2 60 482 C50.1 482 40.2 482 30 482 C30 472.1 30 462.2 30 452 C20.1 452 10.2 452 0 452 C0 302.84 0 153.68 0 0 Z M135 75 C135 94.8 135 114.6 135 135 C115.2 135 95.4 135 75 135 C75 254.46 75 373.92 75 497 C175.98 497 276.96 497 381 497 C381 357.74 381 218.48 381 75 C299.82 75 218.64 75 135 75 Z " fill="#584AA8" transform="translate(0,0)"/>
<path d="M0 0 C5.82726957 4.37838403 9.96641869 9.6057622 12.15234375 16.6171875 C12.60823291 19.92398539 12.65512335 23.20398587 12.68806458 26.53895569 C12.70897256 27.52304128 12.72988055 28.50712686 12.75142211 29.52103323 C12.81713929 32.81349046 12.86158266 36.10586676 12.90551758 39.39868164 C12.94726273 41.76575263 12.9899141 44.13280779 13.03340149 46.49984741 C13.41385889 68.3680708 13.60010551 90.2411274 13.74585438 112.11206913 C13.76584991 115.05933438 13.78619033 118.00659699 13.80688477 120.95385742 C13.81200833 121.68606423 13.8171319 122.41827105 13.82241073 123.17266595 C13.90172691 134.12496881 14.0653166 145.07371934 14.27856445 156.02416992 C14.60429364 172.98328804 14.80342641 189.93989517 14.796875 206.90234375 C14.79681389 207.5904819 14.79675277 208.27862005 14.79668981 208.98761088 C14.76488974 258.63316566 7.31879621 302.45390715 -13.84765625 347.6171875 C-14.83765625 347.6171875 -15.82765625 347.6171875 -16.84765625 347.6171875 C-38.16739397 300.91941756 -46.58811205 256.54633191 -46.58984375 205.24609375 C-46.59008155 204.57845314 -46.59031936 203.91081253 -46.59056437 203.22294039 C-46.58952091 186.76858373 -46.35038874 170.3205849 -46.00566247 153.87019698 C-45.78345105 143.25516722 -45.63780467 132.64170364 -45.55712891 122.0246582 C-45.55173158 121.31679193 -45.54633426 120.60892565 -45.54077338 119.87960888 C-45.51928781 117.03137837 -45.49817362 114.18314545 -45.47757237 111.3349084 C-45.31971367 89.70303943 -45.10586545 68.06956751 -44.68090057 46.44125557 C-44.63871062 44.21208064 -44.60115188 41.98281235 -44.56864548 39.75347519 C-44.52284812 36.70646186 -44.45898776 33.66035214 -44.3901062 30.61378479 C-44.38042749 29.74099162 -44.37074878 28.86819845 -44.36077678 27.96895701 C-44.0803786 17.72083171 -41.51307415 10.12472883 -34.28515625 2.7578125 C-24.90942739 -5.47600066 -10.77926935 -6.34918694 0 0 Z " fill="#484BA7" transform="translate(479.84765625,3.3828125)"/>
<path d="M0 0 C100.98 0 201.96 0 306 0 C306 4.95 306 9.9 306 15 C304.88817573 14.94708077 303.77635145 14.89416155 302.63083553 14.83963871 C275.25115927 13.55168944 247.87798249 12.65051727 220.47279263 12.1269846 C217.80711704 12.07436041 215.1414635 12.02121397 212.47583008 11.96655273 C211.81348608 11.95301779 211.15114209 11.93948285 210.46872706 11.92553776 C200.54940874 11.71666346 190.64680745 11.31962547 180.73754883 10.82006836 C107.42058575 6.01712585 107.42058575 6.01712585 42.42429972 34.99201345 C14.41885193 60.65315104 11.86600767 96.53075269 10.27392513 132.23938721 C8.87677143 166.91918855 9.87997938 201.6323605 11.01682943 236.30374724 C11.47712596 250.50657993 11.7759992 264.7063447 11.96655273 278.9152832 C11.98011732 279.92327111 11.9936819 280.93125901 12.00765754 281.969792 C12.07491602 287.0292517 12.13953924 292.08874098 12.20285523 297.14825141 C12.72720023 338.77818472 13.71195318 380.38717381 15 422 C10.05 422 5.1 422 0 422 C0 282.74 0 143.48 0 0 Z " fill="#A4DCF2" transform="translate(45,45)"/>
<path d="M0 0 C5.60132227 4.49182959 9.54543594 10.06222997 12.78125 16.44140625 C13.11833984 17.07853043 13.45542969 17.7156546 13.80273438 18.37208557 C18.28030832 28.39173064 17.28021291 39.22008987 17.171875 49.953125 C17.164404 52.1345823 17.15871513 54.31604637 17.15472412 56.49751282 C17.13953553 62.207132 17.10031253 67.91633673 17.0559082 73.62579346 C17.0075681 80.49331856 16.98938923 87.36098312 16.96609497 94.22863007 C16.92745722 104.63317602 16.85075553 115.03681467 16.78125 125.44140625 C-14.89875 125.44140625 -46.57875 125.44140625 -79.21875 125.44140625 C-79.26 110.46765625 -79.30125 95.49390625 -79.34375 80.06640625 C-79.36195801 75.35439941 -79.38016602 70.64239258 -79.39892578 65.78759766 C-79.40795898 59.99291992 -79.40795898 59.99291992 -79.40963745 57.27230835 C-79.41269018 55.38940483 -79.41968574 53.50650499 -79.42990112 51.62362671 C-79.44466732 48.75634056 -79.44655777 45.88929146 -79.44580078 43.02197266 C-79.452997 42.1960644 -79.46019321 41.37015614 -79.4676075 40.51922035 C-79.41841965 26.48135485 -74.87754954 13.60001229 -65.18359375 3.2734375 C-46.37761638 -14.40484458 -20.63067976 -14.4923261 0 0 Z " fill="#9C45AD" transform="translate(495.21875,386.55859375)"/>
<path d="M0 0 C100.98 0 201.96 0 306 0 C306 4.95 306 9.9 306 15 C209.97 15 113.94 15 15 15 C15 149.31 15 283.62 15 422 C10.05 422 5.1 422 0 422 C0 282.74 0 143.48 0 0 Z " fill="#FEFEFE" transform="translate(15,15)"/>
<path d="M0 0 C8.25 0 16.5 0 25 0 C25 64.68 25 129.36 25 196 C16.75 196 8.5 196 0 196 C0 131.32 0 66.64 0 0 Z " fill="#FDFDFE" transform="translate(452,65)"/>
<path d="M0 0 C21.45 0 42.9 0 65 0 C65 21.45 65 42.9 65 65 C43.55 65 22.1 65 0 65 C0 43.55 0 22.1 0 0 Z " fill="#D1B9FE" transform="translate(432,432)"/>
<path d="M0 0 C82.5 0 165 0 250 0 C250 4.95 250 9.9 250 15 C167.5 15 85 15 0 15 C0 10.05 0 5.1 0 0 Z " fill="#4D4FA8" transform="translate(103,162)"/>
<path d="M0 0 C7.03056475 4.10019756 12.20793457 9.89342182 14.99662781 17.56681824 C16.27877351 22.65906719 15.98623048 27.87557938 15.91796875 33.09375 C15.91372391 34.32540894 15.90947906 35.55706787 15.90510559 36.8260498 C15.88838749 40.73842744 15.85074662 44.65027949 15.8125 48.5625 C15.79574452 51.22395079 15.78375755 53.88539665 15.77148438 56.546875 C15.73850624 63.05228413 15.68677023 69.55730312 15.625 76.0625 C10.675 76.0625 5.725 76.0625 0.625 76.0625 C0.625 70.4525 0.625 64.8425 0.625 59.0625 C-7.955 59.0625 -16.535 59.0625 -25.375 59.0625 C-25.375 64.3425 -25.375 69.6225 -25.375 75.0625 C-29.995 75.0625 -34.615 75.0625 -39.375 75.0625 C-39.4493381 67.23374492 -39.50369206 59.40519683 -39.53979492 51.57617188 C-39.55315167 48.91453577 -39.57529814 46.25338714 -39.60131836 43.59179688 C-39.63784115 39.75905248 -39.65475892 35.9266371 -39.66796875 32.09375 C-39.69119453 30.31828796 -39.69119453 30.31828796 -39.71488953 28.50695801 C-39.71682229 18.9489799 -38.1648792 12.00032553 -31.4375 4.89453125 C-22.6468005 -2.91387418 -10.87257138 -4.80065844 0 0 Z " fill="#9B48AE" transform="translate(343.375,398.9375)"/>
<path d="M0 0 C18.15 0 36.3 0 55 0 C55 18.48 55 36.96 55 56 C36.85 56 18.7 56 0 56 C0 37.52 0 19.04 0 0 Z " fill="#784DAC" transform="translate(103,286)"/>
<path d="M0 0 C18.15 0 36.3 0 55 0 C55 18.48 55 36.96 55 56 C36.85 56 18.7 56 0 56 C0 37.52 0 19.04 0 0 Z " fill="#614FAB" transform="translate(103,206)"/>
<path d="M0 0 C18.15 0 36.3 0 55 0 C55 18.15 55 36.3 55 55 C36.85 55 18.7 55 0 55 C0 36.85 0 18.7 0 0 Z " fill="#8E48AD" transform="translate(103,367)"/>
<path d="M0 0 C42.9 0 85.8 0 130 0 C130 4.95 130 9.9 130 15 C87.1 15 44.2 15 0 15 C0 10.05 0 5.1 0 0 Z " fill="#724DAC" transform="translate(179,287)"/>
<path d="M0 0 C42.9 0 85.8 0 130 0 C130 4.95 130 9.9 130 15 C87.1 15 44.2 15 0 15 C0 10.05 0 5.1 0 0 Z " fill="#5B4FAA" transform="translate(179,206)"/>
<path d="M0 0 C39.6 0 79.2 0 120 0 C120 4.95 120 9.9 120 15 C80.4 15 40.8 15 0 15 C0 10.05 0 5.1 0 0 Z " fill="#894AAD" transform="translate(179,367)"/>
<path d="M0 0 C29.7 0 59.4 0 90 0 C90 4.95 90 9.9 90 15 C60.3 15 30.6 15 0 15 C0 10.05 0 5.1 0 0 Z " fill="#644FAB" transform="translate(179,236)"/>
<path d="M0 0 C26.4 0 52.8 0 80 0 C80 4.95 80 9.9 80 15 C53.6 15 27.2 15 0 15 C0 10.05 0 5.1 0 0 Z " fill="#9148AD" transform="translate(179,397)"/>
<path d="M0 0 C4.64868793 3.06167362 8.00224219 5.80097169 10.8359375 10.640625 C11.33609375 11.47464844 11.83625 12.30867188 12.3515625 13.16796875 C13.5859375 15.703125 13.5859375 15.703125 14.5859375 20.703125 C-6.2040625 20.703125 -26.9940625 20.703125 -48.4140625 20.703125 C-46.92401185 11.76282112 -42.6833217 6.00812902 -35.3515625 0.703125 C-24.30196525 -6.74684657 -11.43341121 -6.34121966 0 0 Z " fill="#FCFBFD" transform="translate(481.4140625,396.296875)"/>
<path d="M0 0 C19.8 0 39.6 0 60 0 C60 4.95 60 9.9 60 15 C40.2 15 20.4 15 0 15 C0 10.05 0 5.1 0 0 Z " fill="#7A4CAC" transform="translate(179,317)"/>
<path d="M0 0 C3.56161608 2.1975929 5.47775283 4.13421588 7 8 C7.22705078 10.84082031 7.22705078 10.84082031 7.1953125 14.078125 C7.18886719 15.23828125 7.18242187 16.3984375 7.17578125 17.59375 C7.15902344 18.8003125 7.14226562 20.006875 7.125 21.25 C7.11597656 22.47203125 7.10695313 23.6940625 7.09765625 24.953125 C7.07409603 27.96883366 7.03822539 30.98444158 7 34 C-1.25 34 -9.5 34 -18 34 C-18.13506279 29.62396553 -18.23417753 25.25210732 -18.3125 20.875 C-18.35439453 19.6375 -18.39628906 18.4 -18.43945312 17.125 C-18.57762012 6.84537588 -18.57762012 6.84537588 -15.73046875 3.2578125 C-10.33480999 -1.2038338 -6.76572567 -1.67934977 0 0 Z " fill="#FDFDFE" transform="translate(470,16)"/>
<path d="M0 0 C3.43861283 2.95880638 5.47533265 5.10539141 5.92456055 9.77856445 C5.98286162 12.73460717 5.94819259 15.66901234 5.875 18.625 C5.7821875 23.9153125 5.7821875 23.9153125 5.6875 29.3125 C-2.5625 29.3125 -10.8125 29.3125 -19.3125 29.3125 C-19.395 25.455625 -19.4775 21.59875 -19.5625 17.625 C-19.59891602 16.41755127 -19.63533203 15.21010254 -19.67285156 13.96606445 C-19.75502944 6.05246726 -19.75502944 6.05246726 -17.40625 2.125 C-12.02837166 -2.53047678 -6.36532624 -3.24271337 0 0 Z " fill="#FCFAFD" transform="translate(338.3125,413.6875)"/>
<path d="M0 0 C8.25 0 16.5 0 25 0 C25 8.58 25 17.16 25 26 C16.75 26 8.5 26 0 26 C0 17.42 0 8.84 0 0 Z " fill="#CCB4FB" transform="translate(118,301)"/>
<path d="M0 0 C8.25 0 16.5 0 25 0 C25 8.25 25 16.5 25 25 C16.75 25 8.5 25 0 25 C0 16.75 0 8.5 0 0 Z " fill="#F0C2FD" transform="translate(118,382)"/>
<path d="M0 0 C8.25 0 16.5 0 25 0 C25 7.92 25 15.84 25 24 C16.75 24 8.5 24 0 24 C0 16.08 0 8.16 0 0 Z " fill="#AFACFE" transform="translate(118,222)"/>
<path d="M0 0 C0 10.89 0 21.78 0 33 C-10.89 33 -21.78 33 -33 33 C-29.02127355 28.35815247 -25.07566392 23.92651734 -20.76171875 19.62890625 C-20.19548294 19.06171371 -19.62924713 18.49452118 -19.04585266 17.91014099 C-17.86309421 16.72670827 -16.67909712 15.54451227 -15.49389648 14.36352539 C-13.67117911 12.54622764 -11.85394191 10.72356975 -10.03710938 8.90039062 C-8.88313353 7.74707453 -7.7288481 6.59406809 -6.57421875 5.44140625 C-6.0294841 4.89464737 -5.48474945 4.34788849 -4.92350769 3.78456116 C-1.11498901 0 -1.11498901 0 0 0 Z " fill="#FFFFFF" transform="translate(120,87)"/>
<path d="M0 0 C6.27 0 12.54 0 19 0 C18.24333932 3.78330339 17.37442174 7.1108434 16.15234375 10.73828125 C15.79462891 11.80498047 15.43691406 12.87167969 15.06835938 13.97070312 C14.69517578 15.07349609 14.32199219 16.17628906 13.9375 17.3125 C13.56044922 18.43462891 13.18339844 19.55675781 12.79492188 20.71289062 C11.86598512 23.47618351 10.93425558 26.23850178 10 29 C8.07407061 26.11110591 7.14160944 23.79808875 6.0546875 20.52734375 C5.70019531 19.46322266 5.34570312 18.39910156 4.98046875 17.30273438 C4.61566406 16.19220703 4.25085938 15.08167969 3.875 13.9375 C3.50246094 12.82310547 3.12992187 11.70871094 2.74609375 10.56054688 C0 2.26694139 0 2.26694139 0 0 Z " fill="#F6F5FA" transform="translate(455,275)"/>
</svg>
