<?xml version="1.0" encoding="UTF-8"?>
<svg version="1.1" viewBox="0 0 2048 2048" width="1280" height="1280" xmlns="http://www.w3.org/2000/svg">
<path transform="translate(1755,80)" d="m0 0h17l14 2 14 5 14 9 12 11 9 11 8 16 4 14 1 11 1 249 23 6 20 8 18 10 16 12 13 12 10 11 11 15 10 18 8 20 5 19 3 24v19l-4 27-6 20-8 18-9 16-9 12-9 10-2 3h-2v2l-8 7-11 9-18 11-19 9-18 6-12 3h-3v243l-1 17-5 17-8 15-8 10-8 8-10 7-14 7-13 4-9 1h-21l-14-3-14-6-14-10-11-11-7-10-7-14-3-11-2-19v-15l-7-8-13-13-11-9-15-12-18-13-22-14-26-15-29-15-33-15-32-13-16-6 1 566h368l4 2v384l-2 24-4 20-5 17-10 23-9 15-10 14-13 15-7 7-14 11-11 8-16 9-17 8-18 6-25 5-8 1-58 1h-1348l-24-1-21-3-25-7-18-8-15-8-16-11-13-11-16-16-11-14-13-21-9-20-6-18-4-19-2-18v-1697l16 8 29 15 22 12 32 17 16 9 5-2 16-8 28-15 22-12 30-16 14-8 6 1 30 16 22 12 23 12 23 13 13 7 4-1 25-13 22-12 56-30 8-5 6 1 25 13 22 12 28 15 26 14 11 6 5-2 16-8 22-12 54-29 18-10 6 1 28 15 24 13 56 30 3 2 4-1 34-18 22-12 28-15 22-12 5-3 6 1 32 17 22 12 23 12 22 12 13 7 5-2 27-14 22-12 34-18 22-12 5-3 6 1 56 30 54 29 4 1 22-12 28-15 22-12 29-15 12-7 2 1 1 215 31-12 30-13 39-19 18-10 21-13 11-7 16-11 16-12 11-9 20-18 7-7 1-6v-13l2-16 5-16 8-14 9-11 10-9 13-8 16-6zm-298 1702v7h1v-7zm0 8 1 2zm1 8v8h1v-8zm1 11 1 2zm2 13 1 2zm1 4 1 3zm1 5m1 3 1 2zm1 3 1 2zm1 3 1 2zm2 5 1 2zm1 3 1 2zm1 3 1 2zm1 3m1 1 1 2zm1 3m1 2m1 2m1 2 1 2zm1 2 1 2zm1 2m1 2m1 1 1 2zm1 3m1 1m1 2m1 1m1 2m1 1 1 2zm1 2m1 2m1 1m1 2m1 1m1 1m1 2m1 1m1 1 1 2z" fill="#E7EBEE"/>
<path transform="translate(1755,80)" d="m0 0h17l14 2 14 5 14 9 12 11 9 11 8 16 4 14 1 11 1 249 23 6 20 8 18 10 16 12 13 12 10 11 11 15 10 18 8 20 5 19 3 24v19l-4 27-6 20-8 18-9 16-9 12-9 10-2 3h-2v2l-8 7-11 9-18 11-19 9-18 6-12 3h-3v243l-1 17-5 17-8 15-8 10-8 8-10 7-14 7-13 4-9 1h-21l-14-3-14-6-14-10-11-11-7-10-7-14-3-11-2-19v-15l-7-8-13-13-11-9-15-12-18-13-22-14-26-15-29-15-33-15-32-13-13-5-10-4-35-12-40-12-46-12-41-9-37-7-31-4-88-1v95h59l8 3 6 5 5 10 1 3v77l-4 8-7 7-5 3-4 1-22 1-37-1v40l-4 18-5 11-7 11-13 13-13 8-13 5-10 2h-17l-14-3-16-8-9-7-5-5-8-9-7-12-5-17-1-9-1-262-3-1h-781l-12-1-1-1v-383l29-1h681l141-1 192-1 41-7 43-9 37-9 42-12 38-12 25-9 35-14 28-12 39-19 18-10 21-13 11-7 16-11 16-12 11-9 20-18 7-7 1-6v-13l2-16 5-16 8-14 9-11 10-9 13-8 16-6z" fill="#E1563A"/>
<path transform="translate(1755,80)" d="m0 0h17l14 2 14 5 14 9 12 11 9 11 8 16 4 14 1 11 1 249 23 6 20 8 18 10 16 12 13 12 10 11 11 15 10 18 8 20 5 19 3 24v19l-4 27-6 20-8 18-9 16-9 12-9 10-2 3h-2v2l-8 7-11 9-18 11-19 9-18 6-12 3h-3v243l-1 17-5 17-8 15-8 10-8 8-10 7-14 7-13 4-9 1h-21l-14-3-14-6-14-10-11-11-7-10-7-14-3-11-2-19v-15l-7-8-13-13-11-9-15-12-18-13-22-14-26-15-29-15-33-15-32-13-13-5-10-4-35-12-40-12-46-12-41-9-37-7-21-3-3-1v-401l16-3 38-7 46-10 24-6 42-12 38-12 25-9 35-14 28-12 39-19 18-10 21-13 11-7 16-11 16-12 11-9 20-18 7-7 1-6v-13l2-16 5-16 8-14 9-11 10-9 13-8 16-6z" fill="#484956"/>
<path transform="translate(477,914)" d="m0 0h38l26 3 26 5 24 7 32 13 25 13 22 13 14 10 11 9 13 11 12 12 9 11 12 14 6 9 6 8 5 9 6 10 12 23 10 25 7 21 6 26 4 26 1 11v45l-5 32-7 30-9 26-9 21-10 19-13 21-9 12-13 16-9 10-5 6-8 7-9 9-14 11-17 12-15 9-22 12-26 11-27 9-26 6-32 5h-46l-34-5-22-5-20-6-25-10-23-11-22-13-16-11-13-10-14-12-15-15-11-14-10-12-12-18-10-17-9-17-9-21-7-20-5-17-5-24-4-28-1-14v-22l3-25 5-28 6-24 8-23 11-25 11-20 11-17 14-19 9-11 12-13 9-9 8-7 13-11 15-10 19-12 22-12 27-11 17-6 22-6 28-5z" fill="#4E5FE4"/>
<path transform="translate(1458,1398)" d="m0 0h368l4 2v384l-2 24-4 20-5 17-10 23-9 15-10 14-13 15-7 7-14 11-11 8-16 9-17 8-18 6-25 5-8 1h-38l-20-2-1-2-20-6-15-6-16-8-10-6-16-12-13-12-10-10-8-10-10-15-4-7v-3h-2l-10-24-6-21-3-20-1-12z" fill="#AAB2BD"/>
<path transform="translate(1755,80)" d="m0 0h17l14 2 14 5 14 9 12 11 9 11 8 16 4 14 1 11 1 249 23 6 20 8 18 10 16 12 13 12 10 11 11 15 10 18 8 20 5 19 3 24v19l-4 27-6 20-8 18-9 16-9 12-9 10-2 3h-2v2l-8 7-11 9-18 11-19 9-18 6-12 3h-3v243l-1 17-5 17-8 15-8 10-8 8-10 7-14 7-13 4-9 1h-21l-14-3-14-6-14-10-11-11-7-10-7-14-3-11-2-19v-15l-1-5v-779l1-6v-13l2-16 5-16 8-14 9-11 10-9 13-8 16-6z" fill="#ED9A02"/>
<path transform="translate(1038,372)" d="m0 0h189v401l-95-1v95h59l8 3 6 5 5 10 1 3v77l-4 8-7 7-5 3-4 1-22 1-37-1v40l-4 18-5 11-7 11-13 13-13 8-13 5-10 2h-17l-14-3-16-8-9-7-5-5-8-9-7-12-5-17-1-9-1-262-10-4-12-7-11-6-11-7-13-10-3-2v-2l-4-2-16-16-12-16v-2h-2l-14-24-8-18-7-21-4-21-2-25 1-27 4-23 5-18 8-20 10-19 8-12 9-12 11-12 15-15 17-13 22-13 11-5 21-8 18-5-118-1v-1z" fill="#F9B504"/>
<path transform="translate(1755,80)" d="m0 0h17l14 2 4 2h-6v2h-2l-1 7h3l-1 4 2 5 1 18v54l-1 24v675l-1 22-1 28-2 18-3 11-6 11-10 13-8 8-9 6h-2l-1 2-12 5-12 3-9 1h-15l-5 3v7l3 3 3 7 2 2 1 6 3 1 5 6 1 6-7-6-9-12-7-14-3-11-2-19v-15l-1-5v-779l1-6v-13l2-16 5-16 8-14 9-11 10-9 13-8 16-6z" fill="#F9B504"/>
<path transform="translate(1572,260)" d="m0 0 2 1-1 1v38l-1 39-2 28-3 20-6 24-12 31-10 19-8 14-12 17-10 13-12 13-17 17-20 16-12 8-13 8-10 6-17 8-17 7-20 6-21 5-10 2-22 2h-45l-31-2-14-3v59h-1v-285l16-3 38-7 46-10 24-6 42-12 38-12 25-9 35-14 28-12 39-19z" fill="#5D5C68"/>
<path transform="translate(187,1640)" d="m0 0h1141l14 1 8 4 8 9 5 10v13l-5 10-9 10-8 4-5 1h-1156l-10-5-7-6-6-10-2-7 1-11 5-10 5-6 8-5z" fill="#AAB2BD"/>
<path transform="translate(197,1776)" d="m0 0h153l991 1 10 5 8 10 4 9 1 8-3 10-7 10-7 6-7 3-17 1h-1141l-10-4-10-9-5-9-1-3v-14l6-12 9-8 8-3z" fill="#AAB2BD"/>
<path transform="translate(985,760)" d="m0 0 16 4 23 5 18 2 90 1v95h59l8 3 6 5 5 10 1 3v77l-4 8-7 7-5 3-4 1-22 1-37-1v40l-4 18-5 11-7 11-13 13-13 8-13 5-10 2h-17l-14-3-16-8-9-7-5-5-8-9-7-12-5-17-1-9z" fill="#484956"/>
<path transform="translate(1848,408)" d="m0 0 21 5 16 6 16 8 13 8 12 9 13 12 10 11 11 15 10 18 8 20 5 19 3 24v19l-4 27-6 20-8 18-9 16-9 12-9 10-2 3h-2v2l-8 7-11 9-18 11-19 9-18 6-12 3h-3z" fill="#5E5C68"/>
<path transform="translate(984,1231)" d="m0 0h355l8 3 9 8 6 10 2 8-1 9-6 11-10 10-5 2-6 1h-356l-10-4-8-7-6-8-2-6v-13l6-12 9-8 7-3z" fill="#AAB2BD"/>
<path transform="translate(983,1504)" d="m0 0h355l9 3 8 7 6 9 2 5v13l-5 10-9 10-8 4-9 1h-350l-10-3-8-6-6-7-3-6-1-5v-8l3-10 6-8 7-6 5-2z" fill="#AAB2BD"/>
<path transform="translate(988,1367)" d="m0 0h343l11 1 9 5 7 8 5 10v14l-6 11-5 6-9 6-5 1h-360l-10-5-9-9-4-7-1-5v-11l4-9 6-8 9-6 3-1z" fill="#AAB2BD"/>
<path transform="translate(985,760)" d="m0 0 16 4 23 5 7 1-2 3 1 3h13l1-1h37l2 7v147l-1 33-1 13-4 13-9 15-11 12-11 8-16 7-10 2h-27l-5-2-2 1-1-9z" fill="#5D5C69"/>
<path transform="translate(266,1016)" d="m0 0 1 2 6 1 10 10 17 12 11 8 11 7-1 7-8 32-6 29-6 46-2 21-110 1v6h-1l1-13 5-28 6-24 8-23 11-25 11-20 11-17 14-19 9-11z" fill="#6A7DF0"/>
<path transform="translate(188,1248)" d="m0 0h1v5l110 1 1 2 4 40 4 29 6 31 7 28v6l-11 8-24 16-7-1-16-8-17-9-5-3v-2l-4 1-12-21-8-15-9-21-7-20-5-17-5-24-3-20z" fill="#6A7DF0"/>
<path transform="translate(1054,458)" d="m0 0h9l16 3 4 3v2h2l4 9 3 16v99l-1 48v18l-2 12-1 3-2 1-3 5-8 6-11 2h-13l-9-3-3-2v-2l-4-1-2-1-2-7-3-46v-50l1-21v-14l1-36 1-16 1-8 5-10 7-7z" fill="#EE9B02"/>
<path transform="translate(525,1253)" d="m0 0h97l6 1v9l-4 38-5 27-7 27-3 5-9-1-26-7-31-6-17-4-1-3z" fill="#6A7DF0"/>
<path transform="translate(361,1253)" d="m0 0h102l1 1v33l-1 56-25 5-27 6-28 7h-3l-4-11-7-29-5-33-2-16z" fill="#6A7DF0"/>
<path transform="translate(607,1084)" d="m0 0h4l5 19 4 19 4 25 4 34v10l-2 1h-100v-89l8-2 34-7 30-7z" fill="#6A7DF0"/>
<path transform="translate(381,1084)" d="m0 0 27 7 36 8 18 3 2 3v87h-102l-1-2 6-50 6-30 6-22z" fill="#6A7DF0"/>
<path transform="translate(1132,867)" d="m0 0h59l8 3 6 5 5 10 1 3v77l-4 8-7 7-5 3-4 1-22 1-36-1-1-1z" fill="#E1563A"/>
<path transform="translate(694,1039)" d="m0 0 3 2 6 23 4 26 2 19v44l-2 20-3 17-1 1h-11l-4-25-3-24-6-37-7-30-4-15v-4l20-13z" fill="#6A7DF0"/>
<path transform="translate(63,323)" d="m0 0h1l1 38 1 8v128l-1 272 1 13v195l-1 61v465l-1 173h-1l-1-88v-1115z" fill="#F4F6F7"/>
<path transform="translate(526,956)" d="m0 0 11 6 13 11 12 12 12 17 8 13 5 8-2 4-40 10-14 3h-4l-1-8z" fill="#6A7DF0"/>
<path transform="translate(461,955)" d="m0 0h2v85l-16-3-38-9-5-2 1-5 10-17 8-12 12-14 13-13z" fill="#6A7DF0"/>
<path transform="translate(384,935)" d="m0 0h3l-1 6-8 9-12 16-10 15-7 12-2 5-5-2-12-9-10-7-3-2v-3l-2-1 1-3 24-15 22-12z" fill="#697CEF"/>
<path transform="translate(1456,850)" d="m0 0h1v543h-1l-1-9-1-2-1-115v-250l1-39 1-91z" fill="#FEFEFE"/>
<path transform="translate(603,935)" d="m0 0 6 1 20 9 19 10 12 7-2 1 2 4 11 8-1 4-14 10-10 7-2 1-3-3-13-21-10-15-9-11-4-6v-3l-2-1z" fill="#697CEF"/>
<path transform="translate(1678,183)" d="m0 0 2 1 1 30v744l-2 2-1-165z" fill="#EB8F0B"/>
<path transform="translate(63,749)" d="m0 0h2v20l1 13v195l-1 61v465l-1 173h-1l-1-88z" fill="#FEFEFE"/>
<path transform="translate(459,1406)" d="m0 0h4v25l-27 5-8 1h-13l-5-5-5-8-1-3 2-2 21-6 25-6z" fill="#6A7DF0"/>
<path transform="translate(292,96)" d="m0 0 6 1 30 16 22 12 23 12 23 13 10 5-2 2h-7l-17-8-9-6-19-9-19-10-9-6-13-9-12-4h-8l-9 2-14 8-10 5-9 4-16 9-13 8h-3v2l-13 6-14 5-3-1 22-12 18-10 14-7 22-12 16-9 12-6z" fill="#FDFDFD"/>
<path transform="translate(524,96)" d="m0 0 6 1 25 13 22 12 28 15 26 14 8 5v1h-9l-10-4-9-6-19-9-14-7-11-6-13-8-11-8-10-3-2-1h-8l-10 3-9 5h-3v2l-12 6-10 4-10 6-12 6-10 7-12 5-11 4-3-1 28-15 22-12 32-17z" fill="#FDFDFD"/>
<path transform="translate(989,96)" d="m0 0 6 1 32 17 22 12 23 12 22 12 13 7 7-2-2 5-4 1-16-4-5-3-14-8-30-15-8-5-11-7-13-8-10-4-4-1h-13l-14 5-9 3v2l-13 6h-3v2l-6 3-5 1-1 3-6 4-22 12-13 5-6 3h-2v-2l26-14 28-15 22-12 28-15z" fill="#FDFDFD"/>
<path transform="translate(1222,96)" d="m0 0 6 1 56 30 54 29v1h-9l-16-7-17-9-19-9-15-9-14-9-9-5-10-3h-12l-7 3-10 4-10 5h-4v2l-8 2v2h-4l-1 3-15 9-32 16-8 3-4-1 25-13 22-12 34-18 22-12z" fill="#FDFDFD"/>
<path transform="translate(757,96)" d="m0 0 6 1 28 15 24 13 56 30 3 2 8-2-2 5-4 1-14-3-12-6-5-4-48-24v-2l-8-4v-2l-5-2-12-6-8-3h-11l-10 4-34 17h-3v2l-7 2v2l-6 3-7 5-11 5-6 1-1 2-14 6-2-1 23-13 27-14 22-12 28-15z" fill="#FDFDFD"/>
<path transform="translate(1455,96)" d="m0 0 2 1v107h-1l-1-46-2-4-3-22-1-15-1-4-9 1-11 5-15 7h-3v2l-10 5-12 5-7 4-9 5-11 5-12 5-4-2 27-14 21-12 16-8 22-12 19-10z" fill="#FEFEFE"/>
<path transform="translate(62,96)" d="m0 0 16 8 29 15 22 12 32 17 18 10-4 1-10-1-16-8-14-8-11-6-11-7-12-6-5-3-11-5-10-5h-7l-2 7-1 9-1 27-2 2z" fill="#FEFEFE"/>
<path transform="translate(1678,425)" d="m0 0h1v335h2v198l-2 2-1-165z" fill="#E56F25"/>
<path transform="translate(87,1873)" d="m0 0 4 2 2 5 3 3v2h3l1 4 8 6 9 10v2h2l5 5 10 11 5 4 2 6-9-6-13-12-12-12-11-14-9-14z" fill="#FEFEFE"/>
<path transform="translate(1180,119)" d="m0 0m-2 1h2v2h-2v2h-4l-1 3-15 9-32 16-8 3-4-1 25-13 22-12z" fill="#FEFEFE"/>
<path transform="translate(945,120)" d="m0 0m-2 1h2v3l-6 3-5 1-1 3-6 4-22 12-13 5-6 3h-2v-2l26-14 28-15z" fill="#FEFEFE"/>
<path transform="translate(1834,1024)" d="m0 0v3l-8 10-8 8-10 7-7 4h-2v-2h2l2-4 11-9h2v-2l8-7 4-3z" fill="#FAB604"/>
<path transform="translate(171,1950)" d="m0 0 6 1 13 5 25 7v1l-9-1-21-6-14-6z" fill="#FEFEFE"/>
<path transform="translate(1009,767)" d="m0 0 10 1 3 2-5 2-1-1-2 2-1-3-4-2z" fill="#4A4B58"/>
<path transform="translate(68,1827)" d="m0 0 3 3 2 4v7h2l-1 4-2-2-4-13z" fill="#FEFEFE"/>
<path transform="translate(80,1858)" d="m0 0 3 2 3 7 2 5-2 1-7-14z" fill="#FDFDFD"/>
</svg>
