<?xml version="1.0" encoding="UTF-8"?>
<svg version="1.1" xmlns="http://www.w3.org/2000/svg" width="512" height="512">
<path d="M0 0 C0.91523438 0.40089844 1.83046875 0.80179687 2.7734375 1.21484375 C15.63079661 7.42743323 24.70752662 18.49138923 30.0546875 31.58203125 C32.00156233 37.17234327 33.15898053 42.43674413 32.96728516 48.38183594 C32.8087056 54.23979954 32.72895161 60.09421211 32.67871094 65.95410156 C32.64299817 68.47802051 32.58225067 71.00171328 32.49609375 73.52441406 C31.41529377 86.81780539 31.41529377 86.81780539 35.4342041 98.98187256 C38.90996398 102.05429662 42.75436644 103.70518467 47.09194946 105.22357178 C69.57516326 114.37249178 86.76292991 141.82126314 96 163 C102.94612483 179.56669344 105.54047666 197.27707366 108.02441406 214.95629883 C108.30027375 216.88193565 108.57674065 218.80748556 108.85375977 220.73295593 C109.59541653 225.90058738 110.32844272 231.06940773 111.05959034 236.23853517 C111.82899975 241.6686952 112.60589623 247.09778459 113.3817749 252.52702332 C114.68084412 261.62516914 115.97452251 270.72406826 117.26464844 279.82348633 C118.75575836 290.34017476 120.25426604 300.85578805 121.75693727 311.37083036 C123.36067487 322.59361864 124.95908728 333.81716062 126.55591869 345.04093337 C127.01546897 348.2684354 127.47601244 351.49579441 127.93677521 354.72312355 C128.65913165 359.78463706 129.37791943 364.84664499 130.09393311 369.90905952 C130.35718419 371.7664253 130.62162008 373.62362358 130.88732147 375.48064041 C131.24943151 378.01295822 131.60723492 380.5458481 131.96392822 383.07893372 C132.0701463 383.81471722 132.17636437 384.55050072 132.28580117 385.3085807 C132.78676391 388.90027603 133.11715772 392.37255357 133 396 C134.14275391 396.12955078 134.14275391 396.12955078 135.30859375 396.26171875 C145.1120149 397.59576732 152.60395782 400.59599655 159.4296875 407.9296875 C165.45353339 415.87157388 167.62027357 424.76347502 166.77734375 434.59765625 C165.13423002 444.91896288 159.69859791 453.13933938 151.27734375 459.25 C143.0531632 464.34561984 134.59779654 464.2841351 125.25 464.22705078 C123.99062119 464.22734283 122.73124237 464.22763489 121.43370056 464.22793579 C118.00240746 464.22850649 114.57125595 464.21679835 111.13999557 464.20278788 C107.54589314 464.19023305 103.95178699 464.18910629 100.35766602 464.18673706 C93.56157722 464.1805362 86.76555324 464.16414436 79.96949291 464.14403808 C72.22823045 464.12163556 64.48696479 464.11067473 56.74567795 464.10064721 C40.83041451 464.07977681 24.91521563 464.04462811 9 464 C9.02030273 465.30412842 9.04060547 466.60825684 9.06152344 467.9519043 C9.07794403 469.68017138 9.09386839 471.40844323 9.109375 473.13671875 C9.12403809 473.99422729 9.13870117 474.85173584 9.15380859 475.73522949 C9.19759748 482.24569828 8.30025425 487.29956085 5 493 C4.46375 494.051875 3.9275 495.10375 3.375 496.1875 C-2.38213131 503.0051555 -9.83489436 507.53969007 -18.76953125 508.3359375 C-26.57635152 508.50925217 -33.22147511 508.26118889 -40 504 C-40.62132812 503.66097656 -41.24265625 503.32195312 -41.8828125 502.97265625 C-48.95947844 498.66845034 -52.9011643 490.80568306 -55 483 C-55.23292472 479.70315962 -55.18966485 476.42788158 -55.125 473.125 C-55.11597656 472.24585938 -55.10695312 471.36671875 -55.09765625 470.4609375 C-55.07424577 468.3071729 -55.0383801 466.15354986 -55 464 C-55.65561354 464.00276538 -56.31122707 464.00553076 -56.98670769 464.00837994 C-72.97125743 464.07475844 -88.95575895 464.12433814 -104.94041252 464.15543652 C-112.67061196 464.17087686 -120.40071916 464.1919119 -128.13085938 464.22631836 C-134.87186152 464.2563078 -141.61279683 464.27559557 -148.35386384 464.28226548 C-151.92013524 464.28616166 -155.4862155 464.29525837 -159.05242538 464.31719017 C-163.04268467 464.34152865 -167.03261586 464.3419639 -171.02294922 464.34057617 C-172.77838799 464.35675491 -172.77838799 464.35675491 -174.56929016 464.3732605 C-186.52559932 464.32840154 -195.03855391 461.71972921 -203.6875 453.37109375 C-210.44417193 446.09077974 -213.1116604 437.86798814 -213 428 C-212.19249531 418.38204234 -208.13514949 410.16709626 -201.078125 403.5703125 C-194.39645602 398.52138218 -187.25998147 396.4062286 -179 396 C-178.95802868 395.35372933 -178.91605736 394.70745867 -178.87281418 394.04160404 C-178.15714517 384.30824757 -176.77704893 374.69440591 -175.39550781 365.03881836 C-175.1273485 363.146756 -174.85946265 361.25465487 -174.59182739 359.36251831 C-173.86788595 354.25209776 -173.13931239 349.14234876 -172.40924931 344.03279948 C-171.95179839 340.83055723 -171.49514474 337.62820222 -171.03871918 334.42581367 C-169.60626305 324.37720014 -168.17091114 314.32900649 -166.73143697 304.28139585 C-165.07754188 292.73688517 -163.43325746 281.19106011 -161.79735303 269.64398664 C-160.52706362 260.68187245 -159.24808835 251.72102386 -157.96269488 242.76106364 C-157.1975997 237.42655381 -156.43603026 232.09160102 -155.68357086 226.75529289 C-154.97444364 221.72800979 -154.25440693 216.70240191 -153.52648544 211.67780685 C-153.26345523 209.84963088 -153.00411917 208.0209183 -152.74908066 206.19161034 C-150.59990294 190.80359187 -147.94615431 174.84427443 -141.25 160.6875 C-140.91419922 159.95660156 -140.57839844 159.22570312 -140.23242188 158.47265625 C-130.33914686 137.55648734 -114.67389462 119.57444774 -95.7421875 106.37890625 C-95.19135498 105.98493652 -94.64052246 105.5909668 -94.07299805 105.18505859 C-92 104 -92 104 -88.93676758 103.10009766 C-84.80688534 101.58160134 -82.80437601 100.44031564 -80 97 C-77.78612664 88.40585787 -78.6912504 79.03728283 -78.9375 70.25 C-78.99374881 66.55833964 -79.03288396 62.86723217 -79.05799866 59.17523193 C-79.07864922 56.88314799 -79.1195974 54.59112209 -79.18455505 52.29986572 C-79.461823 36.81444004 -73.95746354 23.34016945 -63.20703125 12.1796875 C-62.47871094 11.46039063 -61.75039062 10.74109375 -61 10 C-60.17048828 9.13761719 -60.17048828 9.13761719 -59.32421875 8.2578125 C-44.66700148 -5.78111025 -17.97280695 -8.66061241 0 0 Z M-41.5546875 39.70703125 C-45.12787516 45.37584519 -45.28239866 51.28256795 -45.1953125 57.77734375 C-45.19329834 58.49764771 -45.19128418 59.21795166 -45.18920898 59.96008301 C-45.17884171 62.61928793 -45.15092005 65.2784012 -45.125 67.9375 C-45.08375 73.898125 -45.0425 79.85875 -45 86 C-30.48 86 -15.96 86 -1 86 C-0.938125 80.06 -0.87625 74.12 -0.8125 68 C-0.78518799 66.14117187 -0.75787598 64.28234375 -0.72973633 62.3671875 C-0.72096256 60.86979824 -0.71332074 59.37240175 -0.70703125 57.875 C-0.69168335 57.11703125 -0.67633545 56.3590625 -0.66052246 55.578125 C-0.65646929 47.19075796 -3.353307 40.82824476 -9.12109375 34.69921875 C-13.97726113 30.30746654 -19.18645082 29.4204148 -25.515625 29.66015625 C-32.60945841 30.63053912 -36.92918184 34.48989115 -41.5546875 39.70703125 Z " fill="#FEC02B" transform="translate(279,4)"/>
<path d="M0 0 C125.4 0 250.8 0 380 0 C377.81564731 13.10611616 374.95253432 21.50382997 364.27734375 29.25 C356.0531632 34.34561984 347.59779654 34.2841351 338.25 34.22705078 C336.99062119 34.22734283 335.73124237 34.22763489 334.43370056 34.22793579 C331.00240746 34.22850649 327.57125595 34.21679835 324.13999557 34.20278788 C320.54589314 34.19023305 316.95178699 34.18910629 313.35766602 34.18673706 C306.56157722 34.1805362 299.76555324 34.16414436 292.96949291 34.14403808 C285.22823045 34.12163556 277.48696479 34.11067473 269.74567795 34.10064721 C253.83041451 34.07977681 237.91521563 34.04462811 222 34 C222.02030273 35.30412842 222.04060547 36.60825684 222.06152344 37.9519043 C222.07794403 39.68017138 222.09386839 41.40844323 222.109375 43.13671875 C222.12403809 43.99422729 222.13870117 44.85173584 222.15380859 45.73522949 C222.19759748 52.24569828 221.30025425 57.29956085 218 63 C217.195625 64.5778125 217.195625 64.5778125 216.375 66.1875 C210.61786869 73.0051555 203.16510564 77.53969007 194.23046875 78.3359375 C186.42364848 78.50925217 179.77852489 78.26118889 173 74 C172.37867188 73.66097656 171.75734375 73.32195312 171.1171875 72.97265625 C164.04052156 68.66845034 160.0988357 60.80568306 158 53 C157.76707528 49.70315962 157.81033515 46.42788158 157.875 43.125 C157.88402344 42.24585938 157.89304688 41.36671875 157.90234375 40.4609375 C157.92575423 38.3071729 157.9616199 36.15354986 158 34 C157.01657969 34.00414807 157.01657969 34.00414807 156.01329231 34.00837994 C140.02874257 34.07475844 124.04424105 34.12433814 108.05958748 34.15543652 C100.32938804 34.17087686 92.59928084 34.1919119 84.86914062 34.22631836 C78.12813848 34.2563078 71.38720317 34.27559557 64.64613616 34.28226548 C61.07986476 34.28616166 57.5137845 34.29525837 53.94757462 34.31719017 C49.95731533 34.34152865 45.96738414 34.3419639 41.97705078 34.34057617 C40.80675827 34.351362 39.63646576 34.36214783 38.43070984 34.3732605 C26.47440068 34.32840154 17.96144609 31.71972921 9.3125 23.37109375 C2.68805969 16.23325931 1.07467671 9.67209035 0 0 Z " fill="#FEC02B" transform="translate(66,434)"/>
<path d="M0 0 C1.36213705 -0.00649019 2.72426516 -0.01515146 4.08637625 -0.0257743 C7.80107912 -0.04844252 11.51515047 -0.04025763 15.22987354 -0.02663505 C19.24704077 -0.01733994 23.2640865 -0.03689871 27.28121948 -0.0526123 C35.13985993 -0.07864365 42.99827118 -0.07762766 50.8569383 -0.06657412 C57.24675506 -0.05800103 63.63650572 -0.05885803 70.02632332 -0.06637001 C70.93723746 -0.0674249 71.84815161 -0.06847979 72.78666921 -0.06956664 C74.63743358 -0.07173766 76.48819793 -0.07392444 78.33896226 -0.07612679 C95.67734282 -0.09553808 113.01559501 -0.08357654 130.35396505 -0.06134085 C145.21528056 -0.0430925 160.07634759 -0.05399373 174.93763733 -0.08564758 C192.21423358 -0.12244407 209.4906747 -0.13941999 226.7673102 -0.12623531 C228.61140952 -0.12489427 230.45550887 -0.12358529 232.29960823 -0.12230873 C233.20683121 -0.12167807 234.11405419 -0.1210474 235.04876877 -0.12039762 C241.42678537 -0.11737569 247.80468452 -0.12860713 254.18267632 -0.14555931 C261.96141821 -0.16592393 269.73980961 -0.16495432 277.5185334 -0.13692691 C281.48375466 -0.12319235 285.44836488 -0.1188868 289.41356277 -0.14087677 C293.0502404 -0.16077773 296.68577325 -0.15251391 300.32237298 -0.12268243 C302.24661208 -0.1139178 304.17091757 -0.13435112 306.09505314 -0.156151 C316.27296762 -0.02502807 324.44850183 3.11345148 332.16737366 9.82914734 C338.54139334 16.88888063 340.19599152 24.33670809 341.22987366 33.64164734 C215.82987366 33.64164734 90.42987366 33.64164734 -38.77012634 33.64164734 C-36.74205905 21.47324358 -34.41217993 13.19891723 -24.77012634 5.64164734 C-16.63365033 0.73062711 -9.35370222 -0.07874921 0 0 Z " fill="#FFE42C" transform="translate(104.77012634277344,400.3583526611328)"/>
<path d="M0 0 C0.91523438 0.40089844 1.83046875 0.80179687 2.7734375 1.21484375 C15.63079661 7.42743323 24.70752662 18.49138923 30.0546875 31.58203125 C32.02377003 37.23611108 33.12733256 42.6103368 33.11352539 48.61645508 C33.11341209 50.26760063 33.11341209 50.26760063 33.11329651 51.95210266 C33.10813522 53.1293541 33.10297394 54.30660553 33.09765625 55.51953125 C33.0962413 56.73323898 33.09482635 57.94694672 33.09336853 59.19743347 C33.08777665 63.06914752 33.07522558 66.94080347 33.0625 70.8125 C33.05748395 73.43945229 33.05292123 76.06640549 33.04882812 78.69335938 C33.03780987 85.12892603 33.02107976 91.56445886 33 98 C31.83154541 97.58717773 30.66309082 97.17435547 29.45922852 96.74902344 C27.91162419 96.20246518 26.3640166 95.65591619 24.81640625 95.109375 C24.04800415 94.83786621 23.27960205 94.56635742 22.48791504 94.28662109 C12.77416169 90.80722921 12.77416169 90.80722921 2.86547852 87.95996094 C1.58987061 87.64317383 0.3142627 87.32638672 -1 87 C-1.01458252 85.89076172 -1.02916504 84.78152344 -1.04418945 83.63867188 C-1.10249336 79.49349957 -1.17972237 75.34885237 -1.26245117 71.20410156 C-1.29555035 69.41577729 -1.32362826 67.62735232 -1.34643555 65.83886719 C-1.38025956 63.25672801 -1.43258623 60.67549924 -1.48828125 58.09375 C-1.49467117 57.30383667 -1.5010611 56.51392334 -1.50764465 55.70007324 C-1.71237373 47.83755991 -3.91282371 41.30682161 -9.34375 35.4765625 C-14.09926808 31.23697327 -19.37010646 30.43257975 -25.51171875 30.65625 C-32.14337374 31.572397 -36.48311521 34.97633124 -40.7734375 39.92578125 C-44.11330098 45.57376695 -44.32130175 51.61133153 -44.4140625 57.99609375 C-44.43342865 58.82963882 -44.4527948 59.6631839 -44.4727478 60.52198792 C-44.53208993 63.16039084 -44.57874573 65.79883848 -44.625 68.4375 C-44.66322164 70.23634619 -44.70227575 72.03517489 -44.7421875 73.83398438 C-44.8377536 78.22251271 -44.9219502 82.61112661 -45 87 C-45.69037354 87.19634033 -46.38074707 87.39268066 -47.09204102 87.5949707 C-50.25023793 88.49606436 -53.40636279 89.40421963 -56.5625 90.3125 C-58.19155273 90.7755957 -58.19155273 90.7755957 -59.85351562 91.24804688 C-66.58139662 93.18036513 -66.58139662 93.18036513 -73.08984375 95.73046875 C-76 97 -76 97 -79 97 C-79.07650811 89.51105343 -79.12879122 82.02220891 -79.16479492 74.53295898 C-79.17981559 71.98897536 -79.20023807 69.44501733 -79.22631836 66.90112305 C-79.26299773 63.22959037 -79.27979425 59.5584022 -79.29296875 55.88671875 C-79.30845261 54.76230881 -79.32393646 53.63789886 -79.33988953 52.47941589 C-79.34315459 36.91311926 -74.04475065 23.43078591 -63.20703125 12.1796875 C-62.11455078 11.10074219 -62.11455078 11.10074219 -61 10 C-60.44699219 9.42507813 -59.89398438 8.85015625 -59.32421875 8.2578125 C-44.66700148 -5.78111025 -17.97280695 -8.66061241 0 0 Z " fill="#CC7400" transform="translate(279,4)"/>
<path d="M0 0 C1.57007813 0.56074219 1.57007813 0.56074219 3.171875 1.1328125 C24.44976155 9.28753552 40.75891506 25.90286642 50.2109375 46.47265625 C55.6034907 59.30784783 57.41422194 73.57030553 58.54296875 87.34765625 C58.85521914 90.93734996 59.36082983 94.46875493 59.92578125 98.02734375 C61.2734707 106.5342858 62.24817403 115.08157945 63.25 123.63427734 C64.20553428 131.76565012 65.24247477 139.86979776 66.52246094 147.95800781 C67.28859125 152.83836755 67.96594899 157.72919253 68.625 162.625 C68.82609375 164.04425781 68.82609375 164.04425781 69.03125 165.4921875 C71.35042189 182.8149816 71.35042189 182.8149816 68.59960938 187.26586914 C66.25004371 189.81302495 64.35435045 189.97662626 61 190.2109375 C59 190 59 190 56.125 188.1875 C51.19846313 180.79769469 51.35986056 170.42546264 50.368927 161.80514526 C49.94491514 158.12409846 49.50620567 154.44481444 49.06640625 150.765625 C48.97735519 150.02009872 48.88830414 149.27457245 48.79655457 148.50645447 C47.83020687 140.48337068 46.7066983 132.48383713 45.57299805 124.48291016 C44.55990534 117.25890473 43.62228766 110.03034005 42.7421875 102.7890625 C42.63396164 101.90293777 42.52573578 101.01681305 42.41423035 100.10383606 C41.88067119 95.72957285 41.35393917 91.35466326 40.83813477 86.97827148 C38.79359558 68.17303578 38.79359558 68.17303578 32.1875 50.625 C31.83494141 49.95146484 31.48238281 49.27792969 31.11914062 48.58398438 C28.50483358 43.69224106 25.7119677 39.14424748 22 35 C21.41863281 34.33871094 20.83726562 33.67742187 20.23828125 32.99609375 C8.91201966 20.88871067 -6.87170813 13.55981209 -23.4140625 12.7109375 C-32.32189108 12.45395375 -40.51422539 13.05668237 -49 16 C-50.49080078 16.51046875 -50.49080078 16.51046875 -52.01171875 17.03125 C-61.43373482 20.60220616 -68.98153403 26.09495732 -76.25 33 C-79.00086133 35.45271071 -79.91341809 35.98239012 -83.6875 36.75 C-87.92571313 35.79040457 -89.47612619 34.51812713 -92 31 C-92.75 28.1875 -92.75 28.1875 -92 25 C-83.00472166 11.22060865 -65.66718492 1.81234833 -50 -2 C-49.030625 -2.34546875 -48.06125 -2.6909375 -47.0625 -3.046875 C-32.82864379 -7.11641535 -13.67481179 -5.25690001 0 0 Z " fill="#FFE42C" transform="translate(284,141)"/>
<path d="M0 0 C1.8569751 -0.00472824 1.8569751 -0.00472824 3.75146484 -0.009552 C5.11295609 -0.00776222 6.47444701 -0.00571127 7.8359375 -0.00341797 C9.22216814 -0.00409106 10.60839867 -0.00506113 11.99462891 -0.00631714 C14.90333172 -0.00779387 17.81200387 -0.00564037 20.72070312 -0.00097656 C24.45690348 0.00472073 28.19303202 0.00144159 31.92922974 -0.00454903 C34.79273016 -0.00815532 37.65621343 -0.00701574 40.51971436 -0.00442123 C41.89768482 -0.00375215 43.27565682 -0.00457973 44.65362549 -0.00690079 C46.57637504 -0.00942839 48.49913002 -0.0048957 50.421875 0 C52.06615479 0.00119339 52.06615479 0.00119339 53.74365234 0.00241089 C56.2109375 0.12939453 56.2109375 0.12939453 57.2109375 1.12939453 C58.43113836 21.11268396 58.43113836 21.11268396 53.2109375 30.12939453 C52.6746875 31.18126953 52.1384375 32.23314453 51.5859375 33.31689453 C45.82880619 40.13455003 38.37604314 44.6690846 29.44140625 45.46533203 C21.63458598 45.6386467 14.98946239 45.39058342 8.2109375 41.12939453 C7.58960938 40.79037109 6.96828125 40.45134766 6.328125 40.10205078 C-0.69381895 35.83112816 -4.79518946 27.92026883 -6.7890625 20.12939453 C-7.03860913 16.85315786 -7.02379433 13.60074972 -6.9765625 10.31689453 C-6.97591797 9.44613281 -6.97527344 8.57537109 -6.97460938 7.67822266 C-6.92078334 0.00502299 -6.92078334 0.00502299 0 0 Z " fill="#CC7400" transform="translate(230.7890625,466.87060546875)"/>
<path d="M0 0 C20.46 0 40.92 0 62 0 C62 0.33 62 0.66 62 1 C57.05 1 52.1 1 47 1 C47.0825 2.69125 47.165 4.3825 47.25 6.125 C47.22339523 11.31292951 46.6921966 14.12319357 43 18 C39.31789925 21.06298646 35.80613615 23.28834379 30.9375 23.5625 C25.1128249 22.73040356 21.64632886 20.81962663 17.625 16.375 C14.14657687 11.29115082 14.92900365 7.10568648 15 1 C10.05 1 5.1 1 0 1 C0 0.67 0 0.34 0 0 Z " fill="#E79401" transform="translate(225,467)"/>
<path d="M0 0 C2.84309488 0.10338527 4.07353474 0.34669411 6.625 1.75 C8.96346438 5.84231266 8.75762701 9.77542949 8.125 14.375 C6.09868421 18.88815789 6.09868421 18.88815789 3.125 20.375 C-1.20827174 20.86555907 -3.19500344 20.85244439 -6.8125 18.3125 C-9.41210703 14.61002938 -9.49905182 12.82136923 -8.875 8.375 C-5.62452441 0.54430881 -5.62452441 0.54430881 0 0 Z " fill="#FFE32C" transform="translate(180.875,198.625)"/>
</svg>
