<svg width="23" height="22" viewBox="0 0 23 22" fill="none" xmlns="http://www.w3.org/2000/svg">
<path d="M21.0834 20.1668L19.1667 18.3335M11.0209 19.2502C12.2165 19.2502 13.4004 19.0249 14.5049 18.5873C15.6095 18.1496 16.6131 17.5082 17.4585 16.6995C18.3039 15.8909 18.9745 14.9309 19.4321 13.8744C19.8896 12.8178 20.1251 11.6854 20.1251 10.5418C20.1251 9.39823 19.8896 8.26584 19.4321 7.20929C18.9745 6.15275 18.3039 5.19275 17.4585 4.38411C16.6131 3.57546 15.6095 2.93401 14.5049 2.49638C13.4004 2.05874 12.2165 1.8335 11.0209 1.8335C8.60634 1.8335 6.29066 2.75098 4.5833 4.38411C2.87593 6.01724 1.91675 8.23224 1.91675 10.5418C1.91675 12.8514 2.87593 15.0664 4.5833 16.6995C6.29066 18.3327 8.60634 19.2502 11.0209 19.2502Z" stroke="#163B4A" stroke-width="1.5" stroke-linecap="round" stroke-linejoin="round"/>
</svg>
