<?xml version="1.0" encoding="UTF-8"?>
<svg version="1.1" xmlns="http://www.w3.org/2000/svg" width="38" height="36">
<path d="M0 0 C1.32943475 0.68505917 2.65623569 1.37525163 3.98046875 2.0703125 C4.66044922 2.40933594 5.34042969 2.74835937 6.04101562 3.09765625 C10.96939364 5.68222937 10.96939364 5.68222937 11.95581055 8.23095703 C12.02582275 8.87919434 12.09583496 9.52743164 12.16796875 10.1953125 C11.1894668 11.21635801 10.18816448 12.2159246 9.16796875 13.1953125 C9.16796875 14.5153125 9.16796875 15.8353125 9.16796875 17.1953125 C10.65296875 18.1853125 10.65296875 18.1853125 12.16796875 19.1953125 C12.0859375 20.953125 12.0859375 20.953125 11.16796875 23.1953125 C8.92656969 24.70937014 6.88662885 25.89298646 4.48046875 27.0703125 C3.86751953 27.40289062 3.25457031 27.73546875 2.62304688 28.078125 C-0.50391232 29.64326258 -2.39465599 30.27883707 -5.859375 29.6171875 C-9.19766813 28.0204218 -12.46550907 26.35645738 -15.70703125 24.5703125 C-16.85945313 23.93867188 -18.011875 23.30703125 -19.19921875 22.65625 C-20.50246094 21.93308594 -20.50246094 21.93308594 -21.83203125 21.1953125 C-21.95703125 17.8203125 -21.95703125 17.8203125 -21.83203125 14.1953125 C-21.17203125 13.5353125 -20.51203125 12.8753125 -19.83203125 12.1953125 C-20.49203125 11.2053125 -21.15203125 10.2153125 -21.83203125 9.1953125 C-21.91108189 6.86331862 -21.92001894 4.52698628 -21.83203125 2.1953125 C-19.97082962 1.1291873 -18.09232391 0.09323285 -16.20703125 -0.9296875 C-15.16289062 -1.50976562 -14.11875 -2.08984375 -13.04296875 -2.6875 C-7.90851101 -4.4739415 -4.63196954 -2.21504041 0 0 Z " fill="#2A6686" transform="translate(23.83203125,4.8046875)"/>
<path d="M0 0 C0.67998047 0.33902344 1.35996094 0.67804687 2.06054688 1.02734375 C6.97351055 3.60383318 6.97351055 3.60383318 8.01049805 6.12939453 C8.06890869 6.78794434 8.12731934 7.44649414 8.1875 8.125 C7.5275 8.785 6.8675 9.445 6.1875 10.125 C5.1975 9.795 4.2075 9.465 3.1875 9.125 C4.1775 8.795 5.1675 8.465 6.1875 8.125 C6.1875 7.135 6.1875 6.145 6.1875 5.125 C5.37925781 5.4859375 4.57101563 5.846875 3.73828125 6.21875 C2.66964844 6.6828125 1.60101562 7.146875 0.5 7.625 C-0.55574219 8.0890625 -1.61148437 8.553125 -2.69921875 9.03125 C-7.02693731 10.55165301 -9.37407812 10.79218291 -13.56640625 8.84765625 C-14.49324219 8.29980469 -15.42007812 7.75195312 -16.375 7.1875 C-19.51933112 5.3427676 -22.20996459 3.79464776 -25.8125 3.125 C-25.63671875 1.3046875 -25.63671875 1.3046875 -24.8125 -0.875 C-22.51953125 -2.4296875 -22.51953125 -2.4296875 -19.625 -3.75 C-18.21154297 -4.42675781 -18.21154297 -4.42675781 -16.76953125 -5.1171875 C-10.78190217 -6.65166576 -5.22109999 -2.74044078 0 0 Z " fill="#EC4338" transform="translate(27.8125,6.875)"/>
<path d="M0 0 C3.32579876 0.65600618 5.81662215 1.95278778 8.75 3.625 C15.643162 7.11699715 19.93350171 5.71950491 27 3.4375 C28.33600575 2.96583581 29.67037928 2.48937429 31 2 C31 2.99 31 3.98 31 5 C30.34 5.66 29.68 6.32 29 7 C29.33 7.99 29.66 8.98 30 10 C29.5625 12.1875 29.5625 12.1875 29 14 C26.39643759 14.50333542 23.79223349 15.00279378 21.1875 15.5 C20.44951172 15.64308594 19.71152344 15.78617188 18.95117188 15.93359375 C15.92205609 16.50926281 13.090804 17 10 17 C10.165 16.401875 10.33 15.80375 10.5 15.1875 C11.1114124 12.88655664 11.1114124 12.88655664 11 10 C8.97845519 7.46828616 6.71011997 6.19005704 3.8125 4.8125 C3.09707031 4.46832031 2.38164063 4.12414062 1.64453125 3.76953125 C1.10183594 3.51558594 0.55914062 3.26164063 0 3 C0 2.01 0 1.02 0 0 Z " fill="#859E55" transform="translate(3,10)"/>
<path d="M0 0 C0.33 0.66 0.66 1.32 1 2 C2.99541868 2.68025637 4.99617991 3.34490497 7 4 C9.8125 5.375 9.8125 5.375 12 7 C12.6875 9.125 12.6875 9.125 13 11 C13.66 11.33 14.32 11.66 15 12 C14.01 12.33 13.02 12.66 12 13 C11.01 14.485 11.01 14.485 10 16 C6.7 14.35 3.4 12.7 0 11 C0 8 0 8 2 6 C1.34 5.01 0.68 4.02 0 3 C0 2.01 0 1.02 0 0 Z " fill="#515253" transform="translate(2,11)"/>
<path d="M0 0 C5.54954955 1.63963964 5.54954955 1.63963964 7.875 3.5 C11.05262833 5.74303176 14.14184695 6.87511941 18 7 C20.74531856 6.1987737 23.21817785 5.16971788 25.80078125 3.9453125 C28 3 28 3 31 3 C30 6 30 6 27.70703125 7.421875 C26.75183594 7.86015625 25.79664062 8.2984375 24.8125 8.75 C23.87019531 9.19859375 22.92789062 9.6471875 21.95703125 10.109375 C17.10698803 11.5701542 14.07125713 10.50878613 9.5703125 8.37109375 C8.43335938 7.73300781 7.29640625 7.09492188 6.125 6.4375 C4.97257813 5.79683594 3.82015625 5.15617187 2.6328125 4.49609375 C1.76398437 4.00238281 0.89515625 3.50867188 0 3 C0 2.01 0 1.02 0 0 Z " fill="#DEE6EB" transform="translate(3,22)"/>
<path d="M0 0 C4.90817171 1.48084807 9.29258523 3.50259596 13.8125 5.875 C14.49248047 6.21402344 15.17246094 6.55304687 15.87304688 6.90234375 C20.78601055 9.47883318 20.78601055 9.47883318 21.82299805 12.00439453 C21.88140869 12.66294434 21.93981934 13.32149414 22 14 C21.34 14.66 20.68 15.32 20 16 C19.01 15.67 18.02 15.34 17 15 C17.99 14.67 18.98 14.34 20 14 C20 13.01 20 12.02 20 11 C19.14390137 11.31215454 19.14390137 11.31215454 18.27050781 11.63061523 C15.32386502 12.10999916 14.23235773 11.3915784 11.671875 9.91015625 C10.87265625 9.45576172 10.0734375 9.00136719 9.25 8.53320312 C8.425 8.04787109 7.6 7.56253906 6.75 7.0625 C5.90953125 6.58103516 5.0690625 6.09957031 4.203125 5.60351562 C2.12884253 4.41316035 0.06180335 3.21180052 -2 2 C-1.34 1.34 -0.68 0.68 0 0 Z " fill="#5A5757" transform="translate(14,1)"/>
<path d="M0 0 C0 1.32 0 2.64 0 4 C-2.43681587 4.50354867 -4.87435439 5.00296756 -7.3125 5.5 C-8.00279297 5.64308594 -8.69308594 5.78617188 -9.40429688 5.93359375 C-12.32524773 6.52625044 -15.01108122 7 -18 7 C-17.67 5.68 -17.34 4.36 -17 3 C-14.54212344 2.49766027 -12.08374976 1.99803143 -9.625 1.5 C-8.57699219 1.28537109 -8.57699219 1.28537109 -7.5078125 1.06640625 C-2.2265625 0 -2.2265625 0 0 0 Z " fill="#B0DAD9" transform="translate(31,20)"/>
<path d="M0 0 C3.68567935 0.73178137 6.82254016 2.22735828 10.1875 3.875 C11.25355469 4.38804688 12.31960938 4.90109375 13.41796875 5.4296875 C16 7 16 7 17 10 C12.76677156 9.37954537 9.47709705 7.89476441 5.6875 5.9375 C4.61886719 5.38964844 3.55023438 4.84179688 2.44921875 4.27734375 C1.64097656 3.85582031 0.83273438 3.43429687 0 3 C0 2.01 0 1.02 0 0 Z " fill="#F2E8E8" transform="translate(3,10)"/>
<path d="M0 0 C0 0.99 0 1.98 0 3 C-2.09836004 4.03271642 -4.20390891 5.05083717 -6.3125 6.0625 C-7.48425781 6.63097656 -8.65601563 7.19945312 -9.86328125 7.78515625 C-13 9 -13 9 -16 8 C-15.34 8 -14.68 8 -14 8 C-14.33 7.01 -14.66 6.02 -15 5 C-12.8765984 4.16260219 -10.7512272 3.33019717 -8.625 2.5 C-7.44164062 2.0359375 -6.25828125 1.571875 -5.0390625 1.09375 C-2 0 -2 0 0 0 Z " fill="#9BB5C3" transform="translate(34,12)"/>
<path d="M0 0 C-1 3 -1 3 -3.43359375 4.421875 C-4.42488281 4.86015625 -5.41617187 5.2984375 -6.4375 5.75 C-7.42621094 6.19859375 -8.41492188 6.6471875 -9.43359375 7.109375 C-10.28050781 7.40328125 -11.12742187 7.6971875 -12 8 C-12.66 7.67 -13.32 7.34 -14 7 C-13 4 -13 4 -10.8203125 2.83203125 C-9.93085938 2.49558594 -9.04140625 2.15914062 -8.125 1.8125 C-7.24070312 1.46832031 -6.35640625 1.12414062 -5.4453125 0.76953125 C-3 0 -3 0 0 0 Z " fill="#8CBFD1" transform="translate(34,25)"/>
<path d="M0 0 C1.49080078 0.02707031 1.49080078 0.02707031 3.01171875 0.0546875 C3.77097656 0.07789062 4.53023437 0.10109375 5.3125 0.125 C2.70897189 2.90859922 1.20094358 3.85371324 -2.6875 4.125 C-6 3.1875 -6 3.1875 -8.6875 2.125 C-5.26655758 -0.15562828 -4.00562778 -0.09425007 0 0 Z " fill="#217AA6" transform="translate(21.6875,25.875)"/>
<path d="M0 0 C0.33 0.66 0.66 1.32 1 2 C2.3921875 2.4640625 2.3921875 2.4640625 3.8125 2.9375 C6.80735213 3.93578404 8.61830597 4.98472043 11 7 C5.70715835 7.34707158 5.70715835 7.34707158 3 7 C1 5.1875 1 5.1875 0 3 C0 2.01 0 1.02 0 0 Z " fill="#844444" transform="translate(2,11)"/>
<path d="M0 0 C3.39914975 1.13304992 4.05254451 2.12518475 6 5 C5.67 5.66 5.34 6.32 5 7 C2.69 6.01 0.38 5.02 -2 4 C-2 3.01 -2 2.02 -2 1 C-1.34 0.67 -0.68 0.34 0 0 Z " fill="#087BC8" transform="translate(4,18)"/>
<path d="M0 0 C0.495 0.350625 0.99 0.70125 1.5 1.0625 C5.22697603 2.46011601 8.09802848 1.65032859 12 1 C9.10345247 3.46742938 6.85120178 4.80250247 3 5 C1.1875 3.6875 1.1875 3.6875 0 2 C0 1.34 0 0.68 0 0 Z " fill="#9D6D49" transform="translate(14,18)"/>
</svg>
