<?xml version="1.0" encoding="UTF-8"?>
<svg version="1.1" xmlns="http://www.w3.org/2000/svg" width="46" height="44">
<path d="M0 0 C0.92474121 0.03448242 1.84948242 0.06896484 2.80224609 0.10449219 C3.67445801 0.14864258 4.54666992 0.19279297 5.4453125 0.23828125 C6.61731201 0.29495972 6.61731201 0.29495972 7.81298828 0.3527832 C9.875 0.6875 9.875 0.6875 12.875 2.6875 C14.39088394 7.2792182 14.09548856 12.33307934 14.125 17.125 C14.145625 17.95837891 14.16625 18.79175781 14.1875 19.65039062 C14.22040137 24.85291913 13.49478646 28.0713522 10.875 32.6875 C11.17878052 35.37743053 11.17878052 35.37743053 11.875 37.6875 C11.38 38.6775 11.38 38.6775 10.875 39.6875 C5.88983337 41.34922221 0.69959031 40.95174076 -4.52172852 40.98266602 C-5.88055822 40.9942077 -7.23934181 41.01469454 -8.59790039 41.04418945 C-10.56363675 41.08685549 -12.52993641 41.10043055 -14.49609375 41.11328125 C-15.67099365 41.12786377 -16.84589355 41.14244629 -18.05639648 41.1574707 C-21.74777234 40.59211956 -22.93324055 39.66502889 -25.125 36.6875 C-25.25 33.625 -25.25 33.625 -25.125 30.6875 C-25.785 29.6975 -26.445 28.7075 -27.125 27.6875 C-27.56357755 23.70170727 -27.44917626 19.69479232 -27.4375 15.6875 C-27.45361328 14.58148438 -27.46972656 13.47546875 -27.48632812 12.3359375 C-27.48697266 11.27632812 -27.48761719 10.21671875 -27.48828125 9.125 C-27.49126221 8.15433594 -27.49424316 7.18367187 -27.49731445 6.18359375 C-27.125 3.6875 -27.125 3.6875 -25.75219727 1.88183594 C-19.75862896 -2.51734428 -7.11962197 -0.29 0 0 Z " fill="#553A30" transform="translate(30.125,1.3125)"/>
<path d="M0 0 C0.99 0.33 1.98 0.66 3 1 C4.21663403 5.79785517 4.21971645 10.52020928 4.25 15.4375 C4.270625 16.27087891 4.29125 17.10425781 4.3125 17.96289062 C4.34540137 23.16541913 3.61978646 26.3838522 1 31 C1.30378052 33.68993053 1.30378052 33.68993053 2 36 C1.505 36.99 1.505 36.99 1 38 C-3.99894838 39.66631613 -9.21722155 39.18593354 -14.45166016 39.18530273 C-16.4927242 39.1874922 -18.53325007 39.20567052 -20.57421875 39.22460938 C-22.50201172 39.22750977 -22.50201172 39.22750977 -24.46875 39.23046875 C-25.64888672 39.23457764 -26.82902344 39.23868652 -28.04492188 39.24291992 C-31 39 -31 39 -34 37 C-33.34 35.35 -32.68 33.7 -32 32 C-25.565 31.505 -25.565 31.505 -19 31 C-18.67 29.35 -18.34 27.7 -18 26 C-14.04 26.99 -10.08 27.98 -6 29 C-6 29.99 -6 30.98 -6 32 C-4.68 32 -3.36 32 -2 32 C-2.65071928 29.07176325 -3.34934854 27.41562022 -5.9140625 25.77734375 C-7.92130928 24.78790585 -9.9342057 23.85994693 -12 23 C-12 22.67 -12 22.34 -12 22 C-8.04 22 -4.08 22 0 22 C0 14.74 0 7.48 0 0 Z " fill="#080808" transform="translate(40,3)"/>
<path d="M0 0 C0.66 0.33 1.32 0.66 2 1 C3.19388344 5.73076314 3.99652717 10.7615886 1.96875 15.31640625 C-0.68338949 18.69506267 -2.48479421 19.86028318 -6.6875 21 C-10 21 -10 21 -13 20 C-14.38671875 18.4765625 -14.38671875 18.4765625 -15.6875 16.625 C-16.12449219 16.01914062 -16.56148437 15.41328125 -17.01171875 14.7890625 C-18 13 -18 13 -18 10 C-17.01 9.67 -16.02 9.34 -15 9 C-15.33 8.01 -15.66 7.02 -16 6 C-15.67 5.34 -15.34 4.68 -15 4 C-10.05 4 -5.1 4 0 4 C0 2.68 0 1.36 0 0 Z " fill="#E3B329" transform="translate(31,6)"/>
<path d="M0 0 C2 2 2 2 2 6 C0.68 6 -0.64 6 -2 6 C-2 5.01 -2 4.02 -2 3 C-2.69867188 2.86722656 -3.39734375 2.73445313 -4.1171875 2.59765625 C-5.02726562 2.42105469 -5.93734375 2.24445312 -6.875 2.0625 C-7.77992187 1.88847656 -8.68484375 1.71445312 -9.6171875 1.53515625 C-12 1 -12 1 -14 0 C-14.12375 0.804375 -14.2475 1.60875 -14.375 2.4375 C-14.684375 3.7059375 -14.684375 3.7059375 -15 5 C-18.28889042 6.64444521 -21.93324687 6.3990411 -25.56640625 6.62109375 C-26.36949219 6.74613281 -27.17257813 6.87117188 -28 7 C-28.33 7.66 -28.66 8.32 -29 9 C-29.66 9 -30.32 9 -31 9 C-31 7.68 -31 6.36 -31 5 C-30.01 5 -29.02 5 -28 5 C-27.814375 4.236875 -27.62875 3.47375 -27.4375 2.6875 C-25.8293423 -0.3190557 -24.4456938 -1.32898239 -21.2578125 -2.49609375 C-13.81206946 -4.15785993 -6.65101177 -3.75926752 0 0 Z " fill="#77ACB2" transform="translate(36,29)"/>
<path d="M0 0 C0.99 0.33 1.98 0.66 3 1 C4.24162502 5.83737106 4.18372343 10.60386437 4.1875 15.5625 C4.19974609 16.41263672 4.21199219 17.26277344 4.22460938 18.13867188 C4.22750977 19.37133789 4.22750977 19.37133789 4.23046875 20.62890625 C4.23457764 21.37213135 4.23868652 22.11535645 4.24291992 22.88110352 C3.96733278 25.28494353 3.19207471 26.91143314 2 29 C-2.9723422 27.50829734 -7.41845739 25.39542583 -12 23 C-12 22.67 -12 22.34 -12 22 C-8.04 22 -4.08 22 0 22 C0 14.74 0 7.48 0 0 Z " fill="#1A1A1A" transform="translate(40,3)"/>
<path d="M0 0 C0.66 0 1.32 0 2 0 C2 6.93 2 13.86 2 21 C5.96 21 9.92 21 14 21 C13 23 13 23 9.5625 24.375 C5.96147877 25.63566608 5.96147877 25.63566608 4.5625 28.1875 C4.376875 28.785625 4.19125 29.38375 4 30 C3.34 30 2.68 30 2 30 C-0.70654609 26.3841335 -1.37105879 23.76643007 -1.328125 19.296875 C-1.32296875 18.2346875 -1.3178125 17.1725 -1.3125 16.078125 C-1.291875 14.97984375 -1.27125 13.8815625 -1.25 12.75 C-1.24484375 11.63625 -1.2396875 10.5225 -1.234375 9.375 C-1.1541718 1.1541718 -1.1541718 1.1541718 0 0 Z " fill="#0E0E0D" transform="translate(4,4)"/>
<path d="M0 0 C0.66 0.33 1.32 0.66 2 1 C2.4140625 3.72265625 2.4140625 3.72265625 2.625 7.0625 C2.69976562 8.16722656 2.77453125 9.27195312 2.8515625 10.41015625 C2.90054688 11.26480469 2.94953125 12.11945312 3 13 C2.01 13.495 2.01 13.495 1 14 C1 12.68 1 11.36 1 10 C0.236875 10.33 -0.52625 10.66 -1.3125 11 C-4 12 -4 12 -7 12 C-7 11.34 -7 10.68 -7 10 C-8.32 9.67 -9.64 9.34 -11 9 C-11 9.66 -11 10.32 -11 11 C-13 11 -13 11 -14.6875 9.75 C-15.3371875 8.88375 -15.3371875 8.88375 -16 8 C-15.67 6.68 -15.34 5.36 -15 4 C-10.05 4 -5.1 4 0 4 C0 2.68 0 1.36 0 0 Z " fill="#74602F" transform="translate(31,6)"/>
<path d="M0 0 C2.31 0 4.62 0 7 0 C6.83886719 0.54785156 6.67773438 1.09570312 6.51171875 1.66015625 C5.93307762 4.30600385 5.83127766 6.7297612 5.8125 9.4375 C5.79832031 10.36433594 5.78414062 11.29117187 5.76953125 12.24609375 C6.01492438 15.17833373 6.77798423 17.33861389 8 20 C5.36 20 2.72 20 0 20 C0 13.4 0 6.8 0 0 Z " fill="#178D7F" transform="translate(8,4)"/>
<path d="M0 0 C2.31 0 4.62 0 7 0 C7 6.27 7 12.54 7 19 C4.69 19 2.38 19 0 19 C0.50466797 18.19755859 0.50466797 18.19755859 1.01953125 17.37890625 C2.27727963 14.32723787 2.02370142 12.20634996 1.6875 8.9375 C1.58824219 7.89464844 1.48898438 6.85179687 1.38671875 5.77734375 C1.07510608 2.92136292 1.07510608 2.92136292 0 0 Z " fill="#158E81" transform="translate(31,4)"/>
<path d="M0 0 C0 1.65 0 3.3 0 5 C0.66 5 1.32 5 2 5 C1.67 6.32 1.34 7.64 1 9 C0.21753906 9.04898438 -0.56492187 9.09796875 -1.37109375 9.1484375 C-2.38300781 9.22320312 -3.39492187 9.29796875 -4.4375 9.375 C-5.44683594 9.44460937 -6.45617187 9.51421875 -7.49609375 9.5859375 C-8.73552734 9.79089844 -8.73552734 9.79089844 -10 10 C-10.33 10.66 -10.66 11.32 -11 12 C-11.66 12 -12.32 12 -13 12 C-13 10.68 -13 9.36 -13 8 C-12.01 8 -11.02 8 -10 8 C-9.814375 7.236875 -9.62875 6.47375 -9.4375 5.6875 C-7.60230412 2.25648161 -4.0947486 0 0 0 Z " fill="#02AC95" transform="translate(18,26)"/>
<path d="M0 0 C3.63 0 7.26 0 11 0 C11 7.59 11 15.18 11 23 C7.37 23 3.74 23 0 23 C0.33 22.34 0.66 21.68 1 21 C3.64 21 6.28 21 9 21 C9 14.73 9 8.46 9 2 C6.36 2 3.72 2 1 2 C0.67 1.34 0.34 0.68 0 0 Z " fill="#6A675A" transform="translate(29,2)"/>
<path d="M0 0 C1.51400391 0.01740234 1.51400391 0.01740234 3.05859375 0.03515625 C4.07050781 0.04417969 5.08242187 0.05320313 6.125 0.0625 C7.29869141 0.07990234 7.29869141 0.07990234 8.49609375 0.09765625 C7.50609375 1.58265625 7.50609375 1.58265625 6.49609375 3.09765625 C4.18609375 2.76765625 1.87609375 2.43765625 -0.50390625 2.09765625 C-0.50390625 8.69765625 -0.50390625 15.29765625 -0.50390625 22.09765625 C2.46609375 21.76765625 5.43609375 21.43765625 8.49609375 21.09765625 C8.82609375 21.75765625 9.15609375 22.41765625 9.49609375 23.09765625 C5.53609375 23.09765625 1.57609375 23.09765625 -2.50390625 23.09765625 C-2.69766268 19.45205459 -2.88420964 15.80633769 -3.06640625 12.16015625 C-3.12248047 11.11923828 -3.17855469 10.07832031 -3.23632812 9.00585938 C-3.28466797 8.01650391 -3.33300781 7.02714844 -3.3828125 6.0078125 C-3.42994385 5.09136963 -3.4770752 4.17492676 -3.52563477 3.23071289 C-3.49378823 0.10438474 -3.1264142 0.12193503 0 0 Z " fill="#7A6053" transform="translate(8.50390625,1.90234375)"/>
<path d="M0 0 C-0.66 1.98 -1.32 3.96 -2 6 C-6.9723422 4.50829734 -11.41845739 2.39542583 -16 0 C-16 -0.33 -16 -0.66 -16 -1 C-14.08496326 -1.22281874 -12.16783494 -1.42771076 -10.25 -1.625 C-9.18265625 -1.74101562 -8.1153125 -1.85703125 -7.015625 -1.9765625 C-3.96207601 -2.00029475 -2.53837579 -1.61420985 0 0 Z " fill="#100F0E" transform="translate(44,26)"/>
<path d="M0 0 C2.5625 2.5 2.5625 2.5 4 5 C3.01 5.495 3.01 5.495 2 6 C2 5.34 2 4.68 2 4 C-4.51945052 2.64189457 -4.51945052 2.64189457 -10.5625 4.5625 C-12.23785257 7.40331523 -12.70298591 9.73284503 -13 13 C-12.34 13.33 -11.68 13.66 -11 14 C-12.32 14.33 -13.64 14.66 -15 15 C-15.42004622 8.90932974 -15.0566405 5.89183119 -11 1 C-7.5447173 -0.72764135 -3.76849737 -0.6291985 0 0 Z " fill="#62483C" transform="translate(28,1)"/>
<path d="M0 0 C5.94 1.485 5.94 1.485 12 3 C12 3.99 12 4.98 12 6 C7.71 6 3.42 6 -1 6 C-0.67 4.02 -0.34 2.04 0 0 Z " fill="#C03B38" transform="translate(22,29)"/>
<path d="M0 0 C4.62 0 9.24 0 14 0 C14.33 1.32 14.66 2.64 15 4 C9.72 4 4.44 4 -1 4 C-0.67 2.68 -0.34 1.36 0 0 Z " fill="#EDBB28" transform="translate(16,10)"/>
<path d="M0 0 C1.0625 1.875 1.0625 1.875 2 4 C1.67 4.66 1.34 5.32 1 6 C-1.06640625 6.4140625 -1.06640625 6.4140625 -3.5625 6.625 C-4.38878906 6.69976562 -5.21507812 6.77453125 -6.06640625 6.8515625 C-7.02353516 6.92503906 -7.02353516 6.92503906 -8 7 C-8 6.34 -8 5.68 -8 5 C-7.01 5 -6.02 5 -5 5 C-5 4.34 -5 3.68 -5 3 C-4.360625 2.87625 -3.72125 2.7525 -3.0625 2.625 C-2.0415625 2.315625 -2.0415625 2.315625 -1 2 C-0.67 1.34 -0.34 0.68 0 0 Z " fill="#4F4F4F" transform="translate(40,35)"/>
<path d="M0 0 C0 1.98 0 3.96 0 6 C-1.98 6 -3.96 6 -6 6 C-5.625 3.5625 -5.625 3.5625 -5 1 C-3 0 -3 0 0 0 Z " fill="#5BC6CA" transform="translate(15,28)"/>
<path d="M0 0 C0.66 0.33 1.32 0.66 2 1 C2.4140625 3.72265625 2.4140625 3.72265625 2.625 7.0625 C2.69976562 8.16722656 2.77453125 9.27195312 2.8515625 10.41015625 C2.90054688 11.26480469 2.94953125 12.11945312 3 13 C2.01 13.495 2.01 13.495 1 14 C1 12.68 1 11.36 1 10 C0.34 10 -0.32 10 -1 10 C-0.67 6.7 -0.34 3.4 0 0 Z " fill="#6B5533" transform="translate(31,6)"/>
<path d="M0 0 C0.66 0 1.32 0 2 0 C2 2.64 2 5.28 2 8 C1.01 8.33 0.02 8.66 -1 9 C-1.09765625 2.84765625 -1.09765625 2.84765625 -1 1 C-0.67 0.67 -0.34 0.34 0 0 Z " fill="#181818" transform="translate(4,4)"/>
<path d="M0 0 C0.33 0.66 0.66 1.32 1 2 C4.3 2 7.6 2 11 2 C11 2.33 11 2.66 11 3 C10.21753906 3.04898438 9.43507813 3.09796875 8.62890625 3.1484375 C7.61699219 3.22320312 6.60507813 3.29796875 5.5625 3.375 C4.55316406 3.44460937 3.54382813 3.51421875 2.50390625 3.5859375 C1.26447266 3.79089844 1.26447266 3.79089844 0 4 C-0.33 4.66 -0.66 5.32 -1 6 C-1.66 6 -2.32 6 -3 6 C-3 4.68 -3 3.36 -3 2 C-2.01 2 -1.02 2 0 2 C0 1.34 0 0.68 0 0 Z " fill="#3A6569" transform="translate(8,32)"/>
<path d="M0 0 C2.64 0.66 5.28 1.32 8 2 C8 2.66 8 3.32 8 4 C6.02 4 4.04 4 2 4 C1.34 2.68 0.68 1.36 0 0 Z " fill="#E75552" transform="translate(26,30)"/>
<path d="M0 0 C1.485 0.99 1.485 0.99 3 2 C3.66 1.34 4.32 0.68 5 0 C5.33 1.32 5.66 2.64 6 4 C4.35 4.33 2.7 4.66 1 5 C0.67 3.35 0.34 1.7 0 0 Z " fill="#CDA427" transform="translate(25,15)"/>
<path d="M0 0 C2.475 0.99 2.475 0.99 5 2 C4.67 3.32 4.34 4.64 4 6 C3.34 6 2.68 6 2 6 C0 3 0 3 0 0 Z " fill="#161616" transform="translate(4,28)"/>
</svg>
